<svg width="151" height="54" fill="none" xmlns="http://www.w3.org/2000/svg"><rect width="151" height="54" rx="10" fill="#3670C7"/><path d="M79.414 18.237V34h-1.87V22.417c0-.154.004-.319.011-.495l.044-.539-5.412 9.856c-.169.33-.425.495-.77.495h-.308c-.345 0-.601-.165-.77-.495l-5.522-9.9c.044.389.066.748.066 1.078V34h-1.87V18.237h1.573c.19 0 .337.018.44.055.103.037.202.14.297.308l5.445 9.702c.088.176.172.36.253.55.088.19.169.385.242.583a13.7 13.7 0 0 1 .231-.583c.08-.198.169-.385.264-.561l5.346-9.691c.088-.169.183-.271.286-.308.11-.037.26-.055.451-.055h1.573Zm10.683 8.976c0-.455-.066-.869-.198-1.243a2.636 2.636 0 0 0-.561-.979 2.368 2.368 0 0 0-.891-.638 2.964 2.964 0 0 0-1.2-.231c-.938 0-1.682.275-2.232.825-.543.543-.88 1.298-1.012 2.266h6.094Zm1.584 5.225c-.242.293-.532.55-.87.77-.336.213-.7.389-1.088.528-.381.14-.777.242-1.188.308-.41.073-.818.11-1.221.11a5.78 5.78 0 0 1-2.134-.385 4.833 4.833 0 0 1-1.683-1.144c-.47-.506-.836-1.13-1.1-1.87-.264-.74-.396-1.591-.396-2.552 0-.777.117-1.503.352-2.178a5.144 5.144 0 0 1 1.034-1.749 4.64 4.64 0 0 1 1.639-1.166c.645-.286 1.371-.429 2.178-.429.667 0 1.283.114 1.848.341.572.22 1.063.543 1.474.968.418.418.744.939.979 1.562.235.616.352 1.32.352 2.112 0 .308-.033.513-.1.616-.065.103-.19.154-.373.154h-7.447c.022.704.117 1.316.286 1.837.176.52.418.957.726 1.309.308.345.675.605 1.1.781a3.85 3.85 0 0 0 1.43.253c.491 0 .913-.055 1.265-.165.36-.117.667-.242.924-.374s.47-.253.638-.363c.176-.117.326-.176.45-.176a.43.43 0 0 1 .375.187l.55.715Zm11.865-9.581V34h-1.969v-5.214h-5.346V34h-1.97V22.857h1.97v4.444h5.346v-4.444h1.969Zm12.77 9.768c1.027 0 1.793-.367 2.299-1.1.506-.74.759-1.771.759-3.091 0-1.327-.253-2.361-.759-3.102-.506-.74-1.272-1.111-2.299-1.111-1.026 0-1.793.37-2.299 1.111-.506.74-.759 1.775-.759 3.102 0 1.32.253 2.35.759 3.091.506.733 1.273 1.1 2.299 1.1Zm-4.983-4.961a7.137 7.137 0 0 1 .473-2.068 4.917 4.917 0 0 1 1.023-1.573 4.395 4.395 0 0 1 1.518-.99c.587-.235 1.243-.352 1.969-.352.778 0 1.478.136 2.101.407a4.46 4.46 0 0 1 1.606 1.155c.44.499.778 1.104 1.012 1.815.242.704.363 1.492.363 2.365 0 .88-.121 1.672-.363 2.376a5.181 5.181 0 0 1-1.034 1.804 4.584 4.584 0 0 1-1.606 1.155c-.623.264-1.316.396-2.079.396-.74 0-1.408-.117-2.002-.352a4.397 4.397 0 0 1-1.518-1.001 5.021 5.021 0 0 1-1.023-1.595c-.249-.623-.399-1.327-.451-2.112h-2.695V34h-1.969V22.857h1.969v4.807h2.706Z" fill="#fff"/><g clip-path="url(#a)"><path d="M33 33h6v-2h-6v2Zm0-12v2h18v-2H33Zm0 7h12v-2H33v2Z" fill="#fff"/></g><defs><clipPath id="a"><path fill="#fff" transform="translate(30 15)" d="M0 0h24v24H0z"/></clipPath></defs></svg>