<svg width="82" height="61" fill="none" xmlns="http://www.w3.org/2000/svg"><g clip-path="url(#a)"><path d="m41 32.025-2.175-1.98C31.1 23.04 26 18.42 26 12.75c0-4.62 3.63-8.25 8.25-8.25 2.61 0 5.115 1.215 6.75 3.135 1.635-1.92 4.14-3.135 6.75-3.135 4.62 0 8.25 3.63 8.25 8.25 0 5.67-5.1 10.29-12.825 17.31L41 32.025Z" fill="#2D2D2D"/></g><path d="M11.04 45.432V57H8.88v-7.248c0-.272.005-.557.016-.856.016-.299.048-.616.096-.952a7.5 7.5 0 0 1-.352.832c-.123.25-.243.472-.36.664l-4.424 6.896c-.048.08-.107.16-.176.24-.064.08-.136.152-.216.216a1.42 1.42 0 0 1-.264.152.81.81 0 0 1-.296.056H1.288V45.432h2.16v7.248c0 .272-.008.56-.024.864-.01.299-.04.616-.088.952.107-.299.221-.576.344-.832.128-.256.253-.48.376-.672l4.416-6.896a1.366 1.366 0 0 1 .392-.448c.08-.064.165-.115.256-.152a.74.74 0 0 1 .304-.064h1.616Zm1.597 4.248c.309-.299.693-.541 1.152-.728.458-.192 1.008-.288 1.648-.288.506 0 .957.061 1.352.184.394.117.725.28.992.488.272.203.477.437.616.704a1.683 1.683 0 0 1 .144 1.312 1.6 1.6 0 0 1-.224.488c-.102.16-.238.31-.408.448-.171.133-.382.248-.632.344.448.17.808.421 1.08.752.277.33.416.739.416 1.224 0 .4-.094.755-.28 1.064-.182.31-.424.573-.728.792a3.446 3.446 0 0 1-1.048.488c-.39.112-.792.168-1.208.168a4.92 4.92 0 0 1-.76-.064 4.232 4.232 0 0 1-.808-.216 4.405 4.405 0 0 1-.8-.416 3.396 3.396 0 0 1-.712-.648l.568-.72c.08-.123.2-.184.36-.184.122 0 .24.04.352.12l.384.256c.149.09.325.176.528.256.202.075.456.112.76.112.496 0 .872-.112 1.128-.336a1.07 1.07 0 0 0 .384-.84c0-.33-.134-.59-.4-.776-.262-.187-.688-.28-1.28-.28h-.928v-1.288h.928c.517 0 .914-.09 1.192-.272.277-.181.416-.421.416-.72 0-.272-.123-.496-.368-.672-.24-.176-.598-.264-1.072-.264-.283 0-.523.03-.72.088a3.472 3.472 0 0 0-.512.192 3.48 3.48 0 0 0-.352.184.514.514 0 0 1-.504.04.703.703 0 0 1-.208-.232l-.448-.76Zm11.539 6c.682 0 1.192-.219 1.528-.656.336-.437.504-1.077.504-1.92 0-.837-.166-1.475-.496-1.912-.326-.437-.824-.656-1.496-.656s-1.184.208-1.536.624c-.352.41-.528 1.027-.528 1.848 0 .87.165 1.533.496 1.992.336.453.845.68 1.528.68Zm.576-8.376c-.502.032-.93.13-1.288.296-.352.16-.646.379-.88.656-.23.272-.406.6-.528.984-.118.379-.187.8-.208 1.264.133-.208.296-.397.488-.568.197-.176.416-.325.656-.448.245-.128.51-.227.792-.296.288-.07.594-.104.92-.104.544 0 1.034.096 1.472.288a3.09 3.09 0 0 1 1.112.816c.31.352.544.776.704 1.272.165.49.248 1.035.248 1.632a4.49 4.49 0 0 1-.296 1.672c-.192.496-.467.92-.824 1.272a3.574 3.574 0 0 1-1.28.8 4.736 4.736 0 0 1-1.664.28 4.548 4.548 0 0 1-1.64-.288 3.15 3.15 0 0 1-1.288-.936c-.363-.432-.646-.992-.848-1.68-.203-.693-.304-1.539-.304-2.536 0-.837.077-1.616.232-2.336.154-.72.408-1.35.76-1.888a4.028 4.028 0 0 1 1.384-1.312c.57-.33 1.274-.528 2.112-.592l2.92-.224.104 1.024a.946.946 0 0 1-.096.56c-.086.15-.238.23-.456.24l-2.304.152Zm6.997 7.568c.224.272.466.464.728.576.267.112.555.168.864.168.298 0 .568-.056.808-.168.24-.112.443-.283.608-.512.17-.23.301-.517.392-.864.09-.352.136-.765.136-1.24 0-.48-.04-.885-.12-1.216-.075-.336-.184-.608-.328-.816a1.304 1.304 0 0 0-.528-.456 1.608 1.608 0 0 0-.696-.144c-.41 0-.76.088-1.048.264-.288.17-.56.413-.816.728v3.68Zm-.104-4.96a4.28 4.28 0 0 1 1.144-.92c.426-.235.928-.352 1.504-.352.448 0 .856.093 1.224.28.373.187.693.459.96.816.272.352.48.79.624 1.312.15.517.224 1.112.224 1.784 0 .613-.083 1.181-.248 1.704a4.128 4.128 0 0 1-.712 1.36 3.264 3.264 0 0 1-1.112.904c-.432.213-.917.32-1.456.32-.459 0-.85-.07-1.176-.208a2.934 2.934 0 0 1-.872-.592v3.36h-1.976V48.792h1.208c.256 0 .424.12.504.36l.16.76Zm11.542 3.584c-.57.027-1.05.077-1.44.152-.39.07-.701.16-.936.272-.235.112-.403.243-.504.392a.852.852 0 0 0-.152.488c0 .347.101.595.304.744.208.15.477.224.808.224.405 0 .755-.072 1.048-.216.299-.15.59-.373.872-.672v-1.384Zm-4.528-3.56c.944-.864 2.08-1.296 3.408-1.296.48 0 .91.08 1.288.24.379.155.699.373.96.656.261.277.459.61.592 1 .139.39.208.816.208 1.28V57h-.896c-.187 0-.33-.027-.432-.08-.101-.059-.181-.173-.24-.344l-.176-.592c-.208.187-.41.352-.608.496a3.736 3.736 0 0 1-.616.352 3.14 3.14 0 0 1-.688.216c-.24.053-.507.08-.8.08-.347 0-.667-.045-.96-.136a2.157 2.157 0 0 1-.76-.424 1.886 1.886 0 0 1-.496-.696 2.47 2.47 0 0 1-.176-.968 1.892 1.892 0 0 1 .44-1.208c.16-.187.365-.363.616-.528.25-.165.557-.31.92-.432a7.847 7.847 0 0 1 1.28-.296c.485-.08 1.04-.128 1.664-.144v-.48c0-.55-.117-.955-.352-1.216-.235-.267-.573-.4-1.016-.4-.32 0-.587.037-.8.112-.208.075-.392.16-.552.256l-.44.248a.841.841 0 0 1-.432.112.585.585 0 0 1-.352-.104.956.956 0 0 1-.232-.256l-.352-.632Zm15.469-1.144V57h-1.976v-3.632h-3.2V57h-1.976v-8.208h1.976v3.112h3.2v-3.112h1.976Zm9.11 0V57H61.26v-3.632h-3.2V57h-1.976v-8.208h1.976v3.112h3.2v-3.112h1.976Zm5.589-.128c.608 0 1.16.099 1.656.296.501.197.928.477 1.28.84.357.363.632.805.824 1.328.192.523.288 1.107.288 1.752 0 .65-.096 1.237-.288 1.76a3.742 3.742 0 0 1-.824 1.336c-.352.368-.779.65-1.28.848a4.445 4.445 0 0 1-1.656.296 4.53 4.53 0 0 1-1.672-.296 3.615 3.615 0 0 1-1.288-.848 3.896 3.896 0 0 1-.824-1.336 5.076 5.076 0 0 1-.288-1.76c0-.645.096-1.23.288-1.752a3.81 3.81 0 0 1 .824-1.328 3.668 3.668 0 0 1 1.288-.84 4.53 4.53 0 0 1 1.672-.296Zm0 6.936c.682 0 1.186-.23 1.512-.688.33-.459.496-1.13.496-2.016 0-.885-.166-1.56-.496-2.024-.326-.464-.83-.696-1.512-.696-.694 0-1.208.235-1.544.704-.33.464-.496 1.136-.496 2.016 0 .88.165 1.552.496 2.016.336.459.85.688 1.544.688Zm10.843-3.648c0-.256-.037-.496-.112-.72-.07-.23-.176-.43-.32-.6a1.461 1.461 0 0 0-.552-.4 1.811 1.811 0 0 0-.768-.152c-.57 0-1.021.163-1.352.488-.325.325-.533.787-.624 1.384h3.728Zm-3.768 1.192c.032.421.107.787.224 1.096.118.304.272.557.464.76.192.197.419.347.68.448.267.096.56.144.88.144.32 0 .595-.037.824-.112.235-.075.438-.157.608-.248.176-.09.328-.173.456-.248a.786.786 0 0 1 .384-.112c.166 0 .288.061.368.184l.568.72a3.382 3.382 0 0 1-.736.648c-.272.17-.557.31-.856.416a4.756 4.756 0 0 1-.904.216c-.304.043-.6.064-.888.064a4.44 4.44 0 0 1-1.592-.28 3.634 3.634 0 0 1-1.28-.84 3.99 3.99 0 0 1-.856-1.376c-.208-.55-.312-1.184-.312-1.904 0-.56.09-1.085.272-1.576a3.78 3.78 0 0 1 .776-1.288 3.696 3.696 0 0 1 1.24-.872 4.113 4.113 0 0 1 1.656-.32c.518 0 .995.083 1.432.248.438.165.814.408 1.128.728.315.315.56.704.736 1.168.182.459.272.984.272 1.576 0 .299-.032.501-.096.608-.064.101-.186.152-.368.152h-5.08Z" fill="#2D2D2D"/><defs><clipPath id="a"><path fill="#fff" transform="translate(23)" d="M0 0h36v36H0z"/></clipPath></defs></svg>