<svg width="69" height="61" fill="none" xmlns="http://www.w3.org/2000/svg"><g clip-path="url(#a)"><path d="M34 18c3.315 0 6-2.685 6-6s-2.685-6-6-6-6 2.685-6 6 2.685 6 6 6Zm0 3c-4.005 0-12 2.01-12 6v3h24v-3c0-3.99-7.995-6-12-6Z" fill="#2D2D2D"/></g><path d="M10.64 57H8.472v-9.912H3.448V57h-2.16V45.432h9.352V57Zm4.109-2.128c.224.272.466.464.728.576.266.112.555.168.864.168.299 0 .568-.056.808-.168.24-.112.442-.283.608-.512.17-.23.301-.517.392-.864.09-.352.136-.765.136-1.24 0-.48-.04-.885-.12-1.216-.075-.336-.184-.608-.328-.816a1.304 1.304 0 0 0-.528-.456 1.608 1.608 0 0 0-.696-.144c-.41 0-.76.088-1.048.264-.288.17-.56.413-.816.728v3.68Zm-.104-4.96a4.28 4.28 0 0 1 1.144-.92c.426-.235.928-.352 1.504-.352.448 0 .856.093 1.224.28.373.187.693.459.96.816.272.352.48.79.624 1.312.15.517.224 1.112.224 1.784 0 .613-.083 1.181-.248 1.704a4.128 4.128 0 0 1-.712 1.36 3.264 3.264 0 0 1-1.112.904c-.432.213-.918.32-1.456.32-.459 0-.85-.07-1.176-.208a2.934 2.934 0 0 1-.872-.592v3.36h-1.976V48.792h1.208c.256 0 .424.12.504.36l.16.76Zm10.838-1.248c.608 0 1.16.099 1.656.296.501.197.928.477 1.28.84.357.363.632.805.824 1.328.192.523.288 1.107.288 1.752 0 .65-.096 1.237-.288 1.76a3.741 3.741 0 0 1-.824 1.336c-.352.368-.779.65-1.28.848a4.445 4.445 0 0 1-1.656.296 4.53 4.53 0 0 1-1.672-.296 3.616 3.616 0 0 1-1.288-.848 3.896 3.896 0 0 1-.824-1.336 5.076 5.076 0 0 1-.288-1.76c0-.645.096-1.23.288-1.752a3.81 3.81 0 0 1 .824-1.328 3.669 3.669 0 0 1 1.288-.84 4.53 4.53 0 0 1 1.672-.296Zm0 6.936c.683 0 1.187-.23 1.512-.688.33-.459.496-1.13.496-2.016 0-.885-.165-1.56-.496-2.024-.325-.464-.83-.696-1.512-.696-.693 0-1.208.235-1.544.704-.33.464-.496 1.136-.496 2.016 0 .88.165 1.552.496 2.016.336.459.85.688 1.544.688Zm11.292.048c.794-.059 1.407-.325 1.84-.8.437-.475.655-1.125.655-1.952s-.218-1.477-.656-1.952c-.431-.48-1.045-.75-1.84-.808v5.512Zm-1.728-5.512a3.197 3.197 0 0 0-1.056.256 2.346 2.346 0 0 0-.785.552 2.376 2.376 0 0 0-.488.848 3.38 3.38 0 0 0-.168 1.104c0 .41.056.781.169 1.112.111.325.274.605.487.84.22.23.48.413.784.552.31.133.662.216 1.056.248v-5.512Zm1.792-1.464a5.723 5.723 0 0 1 1.791.376 4.167 4.167 0 0 1 1.392.856c.39.363.691.795.904 1.296a4.25 4.25 0 0 1 .32 1.68 4.33 4.33 0 0 1-.32 1.696 3.763 3.763 0 0 1-.904 1.296 4.27 4.27 0 0 1-1.392.864 5.723 5.723 0 0 1-1.791.376v2.64h-1.856v-2.64a5.806 5.806 0 0 1-1.8-.376 4.386 4.386 0 0 1-1.392-.864 3.815 3.815 0 0 1-.896-1.296 4.33 4.33 0 0 1-.32-1.696c0-.619.106-1.179.32-1.68.213-.501.512-.933.896-1.296.389-.363.853-.648 1.391-.856a5.806 5.806 0 0 1 1.8-.376v-3.24h1.857v3.24Zm13.279.12V57h-1.976v-4.792c0-.123.005-.256.016-.4.016-.15.034-.299.056-.448a3.877 3.877 0 0 1-.352.648c-.011.01-.064.085-.16.224l-.376.52-.512.728c-.192.267-.387.539-.584.816l-1.576 2.224a1.66 1.66 0 0 1-.296.328.588.588 0 0 1-.408.16h-1.208V48.8h1.976v4.792c0 .123-.008.259-.024.408-.011.144-.027.29-.048.44a4.18 4.18 0 0 1 .504-.864c.096-.133.218-.307.368-.52l.52-.72.584-.832c.464-.656.992-1.397 1.584-2.224.074-.117.173-.227.296-.328a.617.617 0 0 1 .416-.16h1.2ZM59.686 57H57.71v-6.696h-2.016a22.82 22.82 0 0 1-.296 2.608 11.367 11.367 0 0 1-.48 1.848c-.182.507-.387.915-.616 1.224a2.928 2.928 0 0 1-.72.712c-.256.17-.52.283-.792.336a3.895 3.895 0 0 1-.824.088c-.294 0-.51-.027-.648-.08-.134-.048-.2-.117-.2-.208V55.6h.472c.176 0 .352-.027.528-.08.176-.053.346-.163.512-.328.165-.165.322-.4.472-.704.15-.31.285-.715.408-1.216.128-.507.24-1.125.336-1.856.096-.73.17-1.605.224-2.624h5.616V57Zm5.298-1.416c.448 0 .782-.112 1-.336.224-.224.336-.512.336-.864 0-.15-.026-.293-.08-.432a.96.96 0 0 0-.232-.368 1.069 1.069 0 0 0-.416-.248 1.758 1.758 0 0 0-.616-.096h-1.464v2.344h1.472Zm-.016-3.752c.57 0 1.054.07 1.448.208.395.139.715.325.96.56.246.235.422.507.528.816.112.304.168.624.168.96 0 .384-.07.739-.208 1.064a2.25 2.25 0 0 1-.6.832 2.78 2.78 0 0 1-.968.536 4.067 4.067 0 0 1-1.304.192h-3.36v-8.208h1.88v3.04h1.456Z" fill="#2D2D2D"/><defs><clipPath id="a"><path fill="#fff" transform="translate(16)" d="M0 0h36v36H0z"/></clipPath></defs></svg>