<svg width="63" height="61" fill="none" xmlns="http://www.w3.org/2000/svg"><g clip-path="url(#a)"><path d="M24.5 27a2.996 2.996 0 0 0-2.985 3c0 1.65 1.335 3 2.985 3s3-1.35 3-3-1.35-3-3-3Zm-9-24v3h3l5.4 11.385-2.025 3.675a2.9 2.9 0 0 0-.375 1.44c0 1.65 1.35 3 3 3h18v-3H25.13a.371.371 0 0 1-.375-.375l.045-.18 1.35-2.445h11.175a2.986 2.986 0 0 0 2.625-1.545l5.37-9.735c.12-.21.18-.465.18-.72 0-.825-.675-1.5-1.5-1.5H21.815l-1.41-3H15.5Zm24 24a2.996 2.996 0 0 0-2.985 3c0 1.65 1.335 3 2.985 3s3-1.35 3-3-1.35-3-3-3Z" fill="#2D2D2D"/><circle cx="43" cy="7" r="7" fill="#fff"/><path d="M45.867 10.39c.187 0 .334.054.441.161.112.103.168.24.168.413V12h-6.944v-.574a.974.974 0 0 1 .308-.714l3.073-3.08c.257-.261.485-.511.686-.749a4.7 4.7 0 0 0 .511-.707c.135-.233.238-.469.308-.707.075-.243.112-.497.112-.763a1.77 1.77 0 0 0-.105-.637 1.25 1.25 0 0 0-.301-.469 1.161 1.161 0 0 0-.462-.28 1.733 1.733 0 0 0-.602-.098c-.205 0-.397.03-.574.091a1.461 1.461 0 0 0-.462.245c-.135.103-.25.224-.343.364a1.6 1.6 0 0 0-.21.462c-.08.215-.182.357-.308.427s-.308.086-.546.049l-.91-.161c.07-.485.205-.91.406-1.274.2-.369.45-.674.749-.917a3.078 3.078 0 0 1 1.036-.553 4.094 4.094 0 0 1 1.26-.189c.467 0 .894.07 1.281.21.387.135.719.329.994.581.275.252.49.555.644.91.154.355.231.749.231 1.183 0 .373-.056.719-.168 1.036a4.09 4.09 0 0 1-.441.91c-.182.29-.397.57-.644.84s-.506.546-.777.826l-2.282 2.331c.22-.065.436-.114.651-.147.22-.037.427-.056.623-.056h2.597Z" fill="#3670C7"/></g><path d="M11.104 57H9.152a.815.815 0 0 1-.512-.16 1.607 1.607 0 0 1-.376-.472L5.8 52.48a1.138 1.138 0 0 0-.208-.272.81.81 0 0 0-.232-.176.757.757 0 0 0-.28-.096 2.281 2.281 0 0 0-.352-.024H3.44V57H1.288V45.432H3.44v4.848h1.088c.219 0 .408-.037.568-.112.16-.075.31-.213.448-.416l2.536-3.744c.107-.17.232-.31.376-.416a.849.849 0 0 1 .52-.16h1.84l-3.144 4.64a2.009 2.009 0 0 1-1.048.816c.32.09.59.235.808.432.224.192.437.459.64.8L11.104 57Zm4.02-8.336c.608 0 1.16.099 1.656.296.501.197.928.477 1.28.84.357.363.632.805.824 1.328.192.523.288 1.107.288 1.752 0 .65-.096 1.237-.288 1.76a3.74 3.74 0 0 1-.824 1.336c-.352.368-.779.65-1.28.848a4.445 4.445 0 0 1-1.656.296 4.53 4.53 0 0 1-1.672-.296 3.616 3.616 0 0 1-1.288-.848 3.897 3.897 0 0 1-.824-1.336 5.076 5.076 0 0 1-.288-1.76c0-.645.096-1.23.288-1.752.197-.523.472-.965.824-1.328a3.67 3.67 0 0 1 1.288-.84 4.53 4.53 0 0 1 1.672-.296Zm0 6.936c.682 0 1.186-.23 1.512-.688.33-.459.496-1.13.496-2.016 0-.885-.166-1.56-.496-2.024-.326-.464-.83-.696-1.512-.696-.694 0-1.208.235-1.544.704-.331.464-.496 1.136-.496 2.016 0 .88.165 1.552.496 2.016.336.459.85.688 1.544.688Zm7.531-.728c.224.272.467.464.728.576.267.112.555.168.864.168.299 0 .568-.056.808-.168.24-.112.443-.283.608-.512.17-.23.302-.517.392-.864.09-.352.136-.765.136-1.24 0-.48-.04-.885-.12-1.216-.075-.336-.184-.608-.328-.816a1.304 1.304 0 0 0-.528-.456 1.607 1.607 0 0 0-.696-.144c-.41 0-.76.088-1.048.264-.288.17-.56.413-.816.728v3.68Zm-.104-4.96a4.282 4.282 0 0 1 1.144-.92c.427-.235.928-.352 1.504-.352.448 0 .856.093 1.224.28.374.187.694.459.96.816.272.352.48.79.624 1.312.15.517.224 1.112.224 1.784 0 .613-.083 1.181-.248 1.704a4.124 4.124 0 0 1-.712 1.36 3.263 3.263 0 0 1-1.112.904c-.432.213-.917.32-1.456.32-.459 0-.85-.07-1.176-.208a2.935 2.935 0 0 1-.872-.592v3.36H20.68V48.792h1.208c.256 0 .424.12.504.36l.16.76Zm6.586-.232c.309-.299.693-.541 1.152-.728.458-.192 1.008-.288 1.648-.288.506 0 .957.061 1.352.184.394.117.725.28.992.488.272.203.477.437.616.704a1.683 1.683 0 0 1 .144 1.312 1.6 1.6 0 0 1-.224.488c-.102.16-.238.31-.408.448-.171.133-.382.248-.632.344.448.17.808.421 1.08.752.277.33.416.739.416 1.224 0 .4-.094.755-.28 1.064-.182.31-.424.573-.728.792a3.446 3.446 0 0 1-1.048.488c-.39.112-.792.168-1.208.168a4.92 4.92 0 0 1-.76-.064 4.232 4.232 0 0 1-.808-.216 4.405 4.405 0 0 1-.8-.416 3.396 3.396 0 0 1-.712-.648l.568-.72c.08-.123.2-.184.36-.184.122 0 .24.04.352.12l.384.256c.149.09.325.176.528.256.202.075.456.112.76.112.496 0 .872-.112 1.128-.336a1.07 1.07 0 0 0 .384-.84c0-.33-.134-.59-.4-.776-.262-.187-.688-.28-1.28-.28h-.928v-1.288h.928c.517 0 .914-.09 1.192-.272.277-.181.416-.421.416-.72 0-.272-.123-.496-.368-.672-.24-.176-.598-.264-1.072-.264-.283 0-.523.03-.72.088a3.472 3.472 0 0 0-.512.192 3.48 3.48 0 0 0-.352.184.514.514 0 0 1-.504.04.703.703 0 0 1-.208-.232l-.448-.76Zm15.059-.888V57H42.22v-4.792c0-.123.005-.256.016-.4.016-.15.034-.299.056-.448a3.884 3.884 0 0 1-.352.648c-.01.01-.064.085-.16.224l-.376.52-.512.728c-.192.267-.387.539-.584.816l-1.576 2.224a1.667 1.667 0 0 1-.296.328.588.588 0 0 1-.408.16H36.82V48.8h1.976v4.792c0 .123-.008.259-.024.408-.01.144-.027.29-.048.44a4.164 4.164 0 0 1 .504-.864c.096-.133.218-.307.368-.52l.52-.72.584-.832c.464-.656.992-1.397 1.584-2.224.074-.117.173-.227.296-.328a.617.617 0 0 1 .416-.16h1.2Zm9.104 0V57h-1.976v-3.632h-3.2V57h-1.976v-8.208h1.976v3.112h3.2v-3.112H53.3Zm6.293 4.704c-.57.027-1.05.077-1.44.152-.39.07-.701.16-.936.272-.234.112-.402.243-.504.392a.85.85 0 0 0-.152.488c0 .347.102.595.304.744.208.15.478.224.808.224.406 0 .755-.072 1.048-.216.299-.15.59-.373.872-.672v-1.384Zm-4.528-3.56c.944-.864 2.08-1.296 3.408-1.296.48 0 .91.08 1.288.24.379.155.699.373.96.656.262.277.459.61.592 1 .139.39.208.816.208 1.28V57h-.896c-.186 0-.33-.027-.432-.08-.101-.059-.181-.173-.24-.344l-.176-.592c-.208.187-.41.352-.608.496a3.74 3.74 0 0 1-.616.352 3.141 3.141 0 0 1-.688.216c-.24.053-.506.08-.8.08-.346 0-.666-.045-.96-.136a2.156 2.156 0 0 1-.76-.424 1.885 1.885 0 0 1-.496-.696 2.468 2.468 0 0 1-.176-.968 1.89 1.89 0 0 1 .44-1.208c.16-.187.366-.363.616-.528.25-.165.558-.31.92-.432a7.844 7.844 0 0 1 1.28-.296c.486-.08 1.04-.128 1.664-.144v-.48c0-.55-.117-.955-.352-1.216-.234-.267-.573-.4-1.016-.4-.32 0-.586.037-.8.112-.208.075-.392.16-.552.256l-.44.248a.841.841 0 0 1-.432.112.585.585 0 0 1-.352-.104.954.954 0 0 1-.232-.256l-.352-.632Z" fill="#2D2D2D"/><defs><clipPath id="a"><path fill="#fff" transform="translate(14)" d="M0 0h36v36H0z"/></clipPath></defs></svg>