<svg width="101" height="54" fill="none" xmlns="http://www.w3.org/2000/svg"><rect width="101" height="54" rx="27" fill="#3670C7"/><g clip-path="url(#a)"><path d="M56.25 30h-1.185l-.42-.405A9.707 9.707 0 0 0 57 23.25a9.75 9.75 0 0 0-9.75-9.75 9.75 9.75 0 0 0-9.75 9.75A9.75 9.75 0 0 0 47.25 33a9.707 9.707 0 0 0 6.345-2.355l.405.42v1.185l7.5 7.485 2.235-2.235L56.25 30Zm-9 0a6.741 6.741 0 0 1-6.75-6.75 6.741 6.741 0 0 1 6.75-6.75A6.741 6.741 0 0 1 54 23.25 6.741 6.741 0 0 1 47.25 30Z" fill="#fff"/></g><defs><clipPath id="a"><path fill="#fff" transform="translate(33 9)" d="M0 0h36v36H0z"/></clipPath></defs></svg>